<svg version="1.1" xmlns="http://www.w3.org/2000/svg" 
     viewBox="340 235 335 330">
<path fill="#000000" opacity="1.000000" stroke="none" 
	d="
M587.516785,541.576660 
	C559.802063,557.153809 530.271606,564.588806 499.002655,562.970276 
	C421.936920,558.981140 359.480377,506.566681 344.020874,431.744751 
	C325.623383,342.703339 383.354187,255.728882 472.811615,238.712738 
	C538.181885,226.278336 592.918457,246.494614 635.601318,297.397095 
	C656.689697,322.546478 667.642822,352.371704 670.396484,385.158997 
	C673.768372,425.306396 663.662292,461.771515 640.338440,494.485260 
	C626.412170,514.018127 608.740967,529.567505 587.516785,541.576660 
M560.818542,329.374512 
	C559.205261,334.972229 557.628235,340.580719 555.972717,346.165894 
	C546.419373,378.395752 536.667542,410.568329 527.367859,442.871063 
	C523.489014,456.344238 518.507019,469.031891 508.557281,479.273071 
	C508.147461,479.694916 508.001892,480.373566 507.583588,481.243988 
	C509.045746,481.822876 510.206238,482.485748 511.450806,482.745117 
	C538.168335,488.313751 563.530273,475.445190 571.905701,450.133789 
	C578.697693,429.607635 584.627930,408.793854 590.797791,388.065186 
	C595.684448,371.648010 601.129761,355.385345 604.951965,338.666443 
	C606.699890,331.020721 604.202820,324.459015 598.784485,319.119843 
	C586.719604,307.231354 567.938721,312.044403 560.818542,329.374512 
M469.342163,420.716492 
	C467.417786,427.092773 465.346100,433.428986 463.599243,439.853546 
	C459.790649,453.860626 444.698273,467.617004 429.261139,467.453644 
	C427.709991,467.437256 425.849915,467.184509 425.115295,469.211121 
	C425.591644,470.885986 426.985687,471.620514 428.151398,472.512756 
	C454.701202,492.833588 496.864594,480.471863 507.710052,448.788452 
	C517.199707,421.065918 524.992920,392.801514 532.835388,364.572998 
	C535.829529,353.795868 529.716492,342.683014 519.313904,338.731110 
	C506.126373,333.721222 492.881256,340.943634 488.468597,355.734558 
	C482.090057,377.114929 475.848236,398.536072 469.342163,420.716492 
M414.071533,447.543945 
	C429.274231,455.146942 443.924622,449.046539 448.910522,432.835693 
	C452.580414,420.903717 456.021881,408.899231 459.389099,396.877716 
	C460.458160,393.060974 461.815948,389.188690 461.387787,385.134064 
	C460.097046,372.911072 452.043488,364.676666 440.316681,363.411591 
	C430.152344,362.315033 420.171234,369.285034 416.703339,380.448700 
	C412.456451,394.120239 408.473328,407.877228 404.602051,421.660736 
	C401.672699,432.090454 404.688538,440.669067 414.071533,447.543945 
z"/>
</svg>